<svg width="106" height="13" viewBox="0 0 106 13" fill="none" xmlns="http://www.w3.org/2000/svg">
<g id="logo">
<g id="XMLID_234_">
<path id="XMLID_243_" d="M8.33278 1.46761V7.33458C8.33278 9.29024 7.48249 10.098 5.4418 10.098C3.40112 10.098 2.55083 9.29024 2.55083 7.33458V1.21252H0.595174C0.467631 1.21252 0.340088 1.34007 0.340088 1.46761V7.41961C0.340088 10.6932 2.42329 11.8411 5.4418 11.8411C8.46032 11.8411 10.5435 10.6932 10.5435 7.41961V1.21252H8.58786C8.46032 1.21252 8.33278 1.29755 8.33278 1.46761Z" fill="black"/>
<path id="XMLID_242_" d="M36.7748 2.9131C36.9449 2.9131 37.0299 2.87058 37.0724 2.74304L37.6251 1.34007C37.6676 1.25504 37.6251 1.21252 37.5401 1.21252H29.6324C28.9097 1.21252 28.6121 1.4251 28.6121 1.93527V11.0333C28.6121 11.4585 28.8246 11.671 29.3773 11.671H36.7323C36.9023 11.671 36.9874 11.6285 37.0299 11.501L37.5826 10.098C37.6251 10.013 37.5826 9.97047 37.4976 9.97047H30.7803V8.09984C30.7803 7.46213 31.1204 7.16453 32.0982 7.16453H35.0317C35.2018 7.16453 35.2868 7.12201 35.3293 6.99447L35.882 5.63401C35.9245 5.54898 35.882 5.50647 35.797 5.50647H30.8228V2.87058H36.7748V2.9131Z" fill="black"/>
<path id="XMLID_238_" fill-rule="evenodd" clip-rule="evenodd" d="M22.8727 6.14418C23.723 5.67653 24.0631 4.86875 24.0631 3.84841C24.0631 1.55264 22.1924 1.21252 20.2368 1.21252H15.7728C15.05 1.21252 14.7524 1.4251 14.7524 1.93527V11.0333C14.7524 11.4585 14.965 11.671 15.5177 11.671H21.002C23.0852 11.671 24.5307 10.8633 24.5307 8.78007C24.5732 7.50464 24.0631 6.44178 22.8727 6.14418ZM16.9632 2.87058H20.4068C21.5547 2.87058 21.8948 3.29573 21.8948 4.18853C21.8948 5.08133 21.5547 5.50647 20.4068 5.50647H16.9632V2.87058ZM16.9632 9.97047H20.832C22.0649 9.97047 22.405 9.54533 22.405 8.5675C22.405 7.58967 22.0649 7.12201 20.832 7.12201H18.2811C17.3033 7.12201 16.9632 7.41961 16.9632 8.05733V9.97047Z" fill="black"/>
<path id="XMLID_235_" fill-rule="evenodd" clip-rule="evenodd" d="M48.9764 7.46213L51.3147 11.501C51.3572 11.5435 51.3572 11.671 51.2722 11.671H49.274C49.104 11.671 49.0615 11.6285 48.9764 11.501L46.8507 7.6747H44.9376C43.9598 7.6747 43.6196 7.9723 43.6196 8.61001V11.671H41.7065C41.579 11.671 41.4514 11.5435 41.4514 11.416V1.93527C41.4514 1.4251 41.749 1.21252 42.4718 1.21252H46.9358C49.5291 1.21252 51.1022 1.89275 51.1022 4.44361C51.1022 6.39927 50.1243 7.16453 48.9764 7.46213ZM43.5771 6.05915H47.2334C48.5938 6.05915 48.8914 5.54898 48.8914 4.44361C48.8914 3.38075 48.5938 2.87058 47.2334 2.87058H43.5771V6.05915Z" fill="black"/>
</g>
<g id="XMLID_224_">
<path id="XMLID_232_" d="M67.5977 10.7357L67.5552 11.671H59.8176V1.21252H67.2576L67.3001 2.19035H60.8805V5.80407H66.4073V6.65436H60.8805V10.7357H67.5977Z" fill="#57AD56" stroke="#57AD56" stroke-width="0.25"/>
<g id="XMLID_229_">
<path fill-rule="evenodd" clip-rule="evenodd" d="M74.0175 8.95013H80.1821L81.3725 11.671H82.5629L77.7587 1.21252H76.5258L71.6792 11.671H72.8271L74.0175 8.95013ZM74.4001 8.05733L76.6534 2.99813L77.0785 1.93527H77.121L77.5462 2.99813L79.7569 8.05733H74.4001Z" fill="#57AD56"/>
<path d="M80.1821 8.95013L80.2966 8.90003L80.2638 8.82513H80.1821V8.95013ZM74.0175 8.95013V8.82513H73.9357L73.903 8.90003L74.0175 8.95013ZM81.3725 11.671L81.2579 11.7211L81.2907 11.796H81.3725V11.671ZM82.5629 11.671V11.796H82.7578L82.6764 11.6189L82.5629 11.671ZM77.7587 1.21252L77.8723 1.16035L77.8389 1.08752H77.7587V1.21252ZM76.5258 1.21252V1.08752H76.446L76.4124 1.15997L76.5258 1.21252ZM71.6792 11.671L71.5658 11.6185L71.4835 11.796H71.6792V11.671ZM72.8271 11.671V11.796H72.9088L72.9416 11.7211L72.8271 11.671ZM76.6534 2.99813L76.7676 3.04902L76.7694 3.04455L76.6534 2.99813ZM74.4001 8.05733L74.2859 8.00647L74.2076 8.18233H74.4001V8.05733ZM77.0785 1.93527V1.81027H76.9939L76.9625 1.88884L77.0785 1.93527ZM77.121 1.93527L77.2371 1.88884L77.2057 1.81027H77.121V1.93527ZM77.5462 2.99813L77.4301 3.04457L77.4316 3.04818L77.5462 2.99813ZM79.7569 8.05733V8.18233H79.948L79.8715 8.00728L79.7569 8.05733ZM80.1821 8.82513H74.0175V9.07513H80.1821V8.82513ZM81.487 11.6209L80.2966 8.90003L80.0675 9.00023L81.2579 11.7211L81.487 11.6209ZM82.5629 11.546H81.3725V11.796H82.5629V11.546ZM77.6452 1.2647L82.4493 11.7232L82.6764 11.6189L77.8723 1.16035L77.6452 1.2647ZM76.5258 1.33752H77.7587V1.08752H76.5258V1.33752ZM71.7926 11.7236L76.6392 1.26508L76.4124 1.15997L71.5658 11.6185L71.7926 11.7236ZM72.8271 11.546H71.6792V11.796H72.8271V11.546ZM73.903 8.90003L72.7126 11.6209L72.9416 11.7211L74.132 9.00023L73.903 8.90003ZM76.5392 2.94727L74.2859 8.00647L74.5143 8.10818L76.7676 3.04898L76.5392 2.94727ZM76.9625 1.88884L76.5373 2.9517L76.7694 3.04455L77.1946 1.98169L76.9625 1.88884ZM77.121 1.81027H77.0785V2.06027H77.121V1.81027ZM77.6622 2.9517L77.2371 1.88884L77.005 1.98169L77.4301 3.04455L77.6622 2.9517ZM79.8715 8.00728L77.6607 2.94807L77.4316 3.04818L79.6424 8.10738L79.8715 8.00728ZM74.4001 8.18233H79.7569V7.93233H74.4001V8.18233Z" fill="#57AD56"/>
</g>
<path id="XMLID_227_" d="M90.2154 2.19035V11.671H89.1525V2.19035H85.2412L85.2837 1.21252H94.1692V2.19035H90.2154Z" fill="#57AD56" stroke="#57AD56" stroke-width="0.25"/>
<path id="XMLID_225_" d="M101.737 11.8837C100.291 11.8837 99.1433 11.5435 98.208 10.9909L98.3781 10.0555C99.3559 10.6082 100.461 10.9483 101.779 10.9483C103.735 10.9483 104.755 10.0555 104.755 8.78012C104.755 6.01669 98.3781 7.46217 98.3781 3.89097C98.3781 2.36046 99.526 1 102.204 1C103.437 1 104.543 1.21257 105.435 1.63771L105.265 2.53051C104.288 2.14789 103.352 1.93531 102.247 1.93531C100.164 1.93531 99.3984 2.87063 99.3984 3.80594C99.3984 6.44183 105.776 4.95383 105.776 8.69509C105.733 10.5657 104.373 11.8837 101.737 11.8837Z" fill="#57AD56" stroke="#57AD56" stroke-width="0.25"/>
</g>
</g>
</svg>
